<svg width="1440" height="1436" xmlns="http://www.w3.org/2000/svg"><g transform="rotate(180 726 731)" fill="#65C897" fill-rule="evenodd" opacity=".048"><path d="M865.271 856.1c2.305-2.561 2.305-6.639 0-9.2-2.351-2.535-6.16-2.533-8.51.005-2.348 2.538-2.348 6.652 0 9.19 2.35 2.538 6.159 2.54 8.51.005zm-28.027 18.091a9.5 9.5 0 1 0-13.488-13.382 9.5 9.5 0 0 0 13.488 13.382zm166.993-237.097c1.52-1.641 2.114-4.034 1.558-6.277-.557-2.243-2.179-3.994-4.255-4.595-2.077-.601-4.293.04-5.813 1.682-2.303 2.558-2.303 6.631 0 9.19 1.128 1.22 2.659 1.906 4.255 1.906 1.597 0 3.127-.686 4.255-1.906zM536.644 597.67a8 8 0 1 0-11.289-11.34 8 8 0 0 0 11.289 11.34zM495.8 766.816a1.85 1.85 0 1 0-2.6-2.632 1.85 1.85 0 0 0 2.6 2.632zm38.015-229.992a3.982 3.982 0 0 0 .884-4.352A4 4 0 0 0 531 530a4 4 0 0 0-3.7 2.472 3.982 3.982 0 0 0 .885 4.352 3.956 3.956 0 0 0 5.63 0zm287.938 456.962a10.983 10.983 0 0 0 2.416-11.985A11 11 0 0 0 814 975a11 11 0 0 0-10.17 6.8 10.983 10.983 0 0 0 2.417 11.986 10.956 10.956 0 0 0 15.506 0zm-35.255 2.736a8.5 8.5 0 1 0-11.997-12.044 8.5 8.5 0 0 0 11.997 12.044zm-34.844.138a8 8 0 1 0-11.309-11.32 8 8 0 0 0 11.31 11.32zm-34.852-3.84a7.517 7.517 0 0 0 1.627-8.184A7.5 7.5 0 0 0 711.5 980a7.5 7.5 0 0 0-6.93 4.636 7.517 7.517 0 0 0 1.628 8.185 7.54 7.54 0 0 0 10.604 0zM585.28 936.275a1.1 1.1 0 1 0-1.56-1.55 1.1 1.1 0 0 0 1.56 1.55zm468.892-96.318a2.25 2.25 0 0 0-3.15-3.15 2.25 2.25 0 0 0 0 3.15 2.15 2.15 0 0 0 3.15 0zm-16.896 30.318a2.515 2.515 0 0 0-.011-3.543 2.494 2.494 0 0 0-3.53 0 2.515 2.515 0 0 0-.011 3.543 2.537 2.537 0 0 0 3.552 0zm-220.219 151.826a10.017 10.017 0 0 0 2.185-10.913A10 10 0 0 0 810 1005a10 10 0 0 0-9.242 6.188 10.017 10.017 0 0 0 2.185 10.913 10.04 10.04 0 0 0 14.114 0zm-105.241-2.311a7.5 7.5 0 1 0-10.632-10.58 7.5 7.5 0 0 0 10.632 10.58zM581 967.93a3.481 3.481 0 0 0-.034-4.916 3.508 3.508 0 0 0-4.932 0 3.481 3.481 0 0 0-.034 4.917 3.455 3.455 0 0 0 5 0zM429.686 706.68a1.6 1.6 0 0 0 0-2.35 1.7 1.7 0 0 0-2.4 0 1.662 1.662 0 1 0 2.35 2.35h.05zm.975-33.997a1.6 1.6 0 0 0 0-2.35 1.662 1.662 0 1 0-2.35 2.35 1.7 1.7 0 0 0 2.35 0zm311.127 378.072a7.406 7.406 0 0 0 0-10.559 7.501 7.501 0 0 0-10.607 0 7.597 7.597 0 0 0 0 10.655 7.501 7.501 0 0 0 10.607-.096zm-29.029 1.009c5.658-5.668 5.654-14.852-.008-20.516-5.662-5.664-14.84-5.664-20.502 0-5.662 5.664-5.666 14.848-.008 20.516 5.675 5.648 14.843 5.648 20.518 0zm-38.106-11.103a8 8 0 1 0-11.306-11.322 8 8 0 0 0 11.306 11.322zm-33.073-10.081a8.063 8.063 0 0 0 0-11.52 8.16 8.16 0 0 0-11.52 11.52 8.064 8.064 0 0 0 11.52 0zm-142.764-96.79a7.5 7.5 0 1 0-10.632-10.58 7.5 7.5 0 0 0 10.632 10.58zm-57.812-85.786a7 7 0 0 0 0-9.79 7.048 7.048 0 0 0-9.79 9.79 7 7 0 0 0 9.79 0zM402.725 711.74a1.75 1.75 0 1 0-2.45 0 1.7 1.7 0 0 0 2.45 0zm-.45-35.47a1.1 1.1 0 1 0-1.55 0 1.05 1.05 0 0 0 1.55 0zm726.721 124.544a2 2 0 0 0-2.8-2.8 1.95 1.95 0 0 0 0 2.8 2 2 0 0 0 2.8 0zm-459.342 266.828a7.982 7.982 0 0 0 1.738-8.708A8 8 0 0 0 664 1054a8 8 0 0 0-7.392 4.934 7.982 7.982 0 0 0 1.738 8.708 7.955 7.955 0 0 0 11.308 0zm-32.994-9.989a8 8 0 1 0-11.32-11.306 8 8 0 0 0 11.32 11.306zm-31.976-13.023a8 8 0 1 0-11.368-11.26 8 8 0 0 0 11.368 11.26z"/><circle cx="486.5" cy="960.5" r="9.5"/><path d="M412.096 852.096a6.5 6.5 0 1 0-9.192-9.192 6.5 6.5 0 0 0 9.192 9.192zm253.558 242.546a7.982 7.982 0 0 0 1.738-8.708A8 8 0 0 0 660 1081a8 8 0 0 0-7.392 4.934 7.982 7.982 0 0 0 1.738 8.708 7.955 7.955 0 0 0 11.308 0zm-32.156-9.12a8.5 8.5 0 1 0-11.997-12.044 8.5 8.5 0 0 0 11.997 12.044zm-32.991-12.008a8.5 8.5 0 1 0-12.015-12.028 8.5 8.5 0 0 0 12.015 12.028zm-30.857-15.834a8.04 8.04 0 0 0 0-11.36 8.017 8.017 0 0 0-11.312.031 7.993 7.993 0 0 0 0 11.298 8.017 8.017 0 0 0 11.312.031zm-30.117-17.192a8.5 8.5 0 1 0-12.066-11.976 8.5 8.5 0 0 0 12.066 11.976zm-124.64-125.161a3 3 0 1 0-3.786-4.654 3 3 0 0 0 3.786 4.654zM637.828 297.83a4 4 0 1 0-5.656-5.66 4 4 0 0 0 5.656 5.66zm35.974-7.026a7.5 7.5 0 1 0-10.605-10.608 7.5 7.5 0 0 0 10.605 10.608zm-13.568 829.447a6 6 0 1 0-8.468-8.502 6 6 0 0 0 8.468 8.502zm-32.4-7.521a7.48 7.48 0 0 0 0-10.53 7.428 7.428 0 0 0-10.557 0 7.433 7.433 0 0 0-2.033 7.24 7.456 7.456 0 0 0 5.33 5.317 7.479 7.479 0 0 0 7.26-2.028zm-32.174-12.077a8 8 0 1 0-11.32-11.306 8 8 0 0 0 11.32 11.306zm-29.483-12.655c3.819-3.943 3.755-10.233-.142-14.099a9.985 9.985 0 0 0-14.07 0c-3.897 3.866-3.96 10.156-.142 14.1a10.085 10.085 0 0 0 14.354 0zm-61.221-38.038a7.017 7.017 0 0 0-.008-9.91 6.993 6.993 0 0 0-9.896 0 7.017 7.017 0 0 0-.008 9.91 7.04 7.04 0 0 0 9.912 0zm-51.576-44.447c3.502-3.328 3.492-8.708-.021-12.025-3.514-3.317-9.204-3.317-12.718 0-3.513 3.317-3.523 8.697-.02 12.025 3.53 3.316 9.229 3.316 12.758 0zm767.755-233.388a3.043 3.043 0 0 0 0-4.25 3.043 3.043 0 0 0-4.27 0 3.043 3.043 0 0 0 0 4.25 3.043 3.043 0 0 0 4.27 0zm-529.009 385.183a9.5 9.5 0 1 0-13.253-13.616 9.5 9.5 0 0 0 13.253 13.616zm-69.331-17.929a6.5 6.5 0 1 0-8.59-9.758 6.5 6.5 0 0 0 8.59 9.758zm-31.059-10.802a8 8 0 1 0-11.472-11.154 8 8 0 0 0 11.472 11.154zm-32.636-14.485a6.5 6.5 0 1 0-9.2-9.184 6.5 6.5 0 0 0 9.2 9.184zm-31-17a6.5 6.5 0 1 0-9.2-9.184 6.5 6.5 0 0 0 9.2 9.184zm-27.62-16.608c3.314-3.267 3.366-8.617.117-11.95a8.37 8.37 0 0 0-11.883-.118 8.42 8.42 0 0 0-2.463 8.233 8.368 8.368 0 0 0 6.033 6.09 8.314 8.314 0 0 0 8.196-2.443v.188zm-78.123-67.13a8.983 8.983 0 0 0 1.96-9.8A9 9 0 0 0 416 998a9 9 0 0 0-8.317 5.554 8.983 8.983 0 0 0 1.96 9.8 8.957 8.957 0 0 0 12.714 0zm-18.611-22.594a14.5 14.5 0 1 0-20.492 0c5.66 5.654 14.831 5.654 20.492 0zm-60.638-92.693a6.483 6.483 0 0 0-.016-9.17 6.507 6.507 0 0 0-9.184 0 6.483 6.483 0 0 0-.016 9.17 6.457 6.457 0 0 0 9.216 0zm-37.248-99.485a3.836 3.836 0 0 0 0-5.46 3.862 3.862 0 0 0-5.445 0 3.884 3.884 0 0 0 1.576 6.777 3.864 3.864 0 0 0 3.869-1.317zm615.215 359.493a2.25 2.25 0 0 0-3.15-3.15 2.25 2.25 0 0 0 3.15 3.15zm-163.433 33.547c4.483-4.494 4.477-11.77-.014-16.257-4.49-4.487-11.766-4.487-16.256 0-4.49 4.486-4.497 11.763-.014 16.257a11.5 11.5 0 0 0 16.284 0zm-202.929-48.73a7.5 7.5 0 1 0-10.426-10.784 7.5 7.5 0 0 0 10.426 10.784zm-31.447-17.672a6 6 0 1 0-8.532-8.44 6 6 0 0 0 8.532 8.44zm-27.895-14.846a9.017 9.017 0 0 0-.01-12.737 8.993 8.993 0 0 0-12.723 0 9.017 9.017 0 0 0-.01 12.737 9.04 9.04 0 0 0 12.743 0zm-28.174-20.137a9.5 9.5 0 1 0-13.395-13.474 9.5 9.5 0 0 0 13.395 13.474zm-25.953-21.028c3.688-3.722 3.673-9.73-.035-13.432a9.493 9.493 0 0 0-13.418 0c-3.708 3.702-3.723 9.71-.035 13.432a9.542 9.542 0 0 0 13.488 0zm-25.928-24.092a9.5 9.5 0 1 0-13.632-13.234 9.5 9.5 0 0 0 13.632 13.234zm-24.142-24.856a9.5 9.5 0 1 0-13.349-13.522 9.5 9.5 0 0 0 13.349 13.522zm-21.817-27.874a9.017 9.017 0 0 0 1.96-9.82A9 9 0 0 0 363 977a9 9 0 0 0-8.317 5.566 9.017 9.017 0 0 0 1.96 9.821 9.04 9.04 0 0 0 12.714 0zm-19.173-27.154a9.483 9.483 0 0 0 2.102-10.353A9.5 9.5 0 0 0 343.5 949a9.5 9.5 0 0 0-8.786 5.88 9.483 9.483 0 0 0 2.102 10.353 9.456 9.456 0 0 0 13.368 0zM288.68 836.685a4.5 4.5 0 1 0-6.36-6.37 4.5 4.5 0 0 0 6.36 6.37zm-14.443-66.448a5.98 5.98 0 0 0 0-8.48 5.997 5.997 0 1 0-8.48 8.48 5.98 5.98 0 0 0 8.48 0zM600.42 223.03c.96-1.323.708-3.047-.601-4.123-1.31-1.077-3.316-1.21-4.8-.318-1.359 1.248-1.359 3.193 0 4.44.715.622 1.687.971 2.7.971 1.014 0 1.986-.35 2.7-.97zm33.814-8.779a6 6 0 1 0-8.468-8.502 6 6 0 0 0 8.468 8.502zm68.878-12.154a6.517 6.517 0 0 0-.021-9.196 6.493 6.493 0 0 0-9.182 0 6.517 6.517 0 0 0-.021 9.196 6.54 6.54 0 0 0 9.224 0zm579.568 528.588a4.5 4.5 0 1 0-6.36-6.37 4.5 4.5 0 0 0 6.36 6.37zm-561.051 488.916c5.84-5.868 5.826-15.36-.03-21.212s-15.342-5.852-21.198 0-5.87 15.344-.03 21.212c5.874 5.865 15.384 5.865 21.258 0zm-34.87-4.837c5.658-5.668 5.654-14.852-.008-20.516-5.662-5.664-14.84-5.664-20.502 0-5.662 5.664-5.666 14.848-.008 20.516 5.675 5.648 14.843 5.648 20.518 0zm-39.685-11.646a6.5 6.5 0 1 0-9.149-9.236 6.5 6.5 0 0 0 9.149 9.236zm-61.101-15a13.5 13.5 0 1 0-18.946 0c5.255 5.176 13.691 5.176 18.946 0zm-67.026-32.282a7.68 7.68 0 0 0 2.857-7.846 7.738 7.738 0 0 0-6.007-5.832 7.79 7.79 0 0 0-7.836 3.012 7.67 7.67 0 0 0 .325 10.584c2.918 2.885 7.596 3.006 10.661.276v-.194zm-29.449-17.314a8.5 8.5 0 1 0-11.997-12.044 8.5 8.5 0 0 0 11.997 12.044zm-28.127-18.148a9.017 9.017 0 0 0-.01-12.737 8.993 8.993 0 0 0-12.723 0 9.017 9.017 0 0 0-.01 12.737 9.04 9.04 0 0 0 12.743 0zm-27.152-21.158a9.5 9.5 0 1 0-13.438-13.432 9.5 9.5 0 0 0 13.438 13.432zm-25.998-22.002a9.5 9.5 0 1 0-13.442-13.428 9.5 9.5 0 0 0 13.442 13.428zm-24.158-24.135a10 10 0 1 0-14.126 0c3.903 3.895 10.223 3.895 14.126 0zm-22.771-26.937a9.5 9.5 0 1 0-13.584-13.284 9.5 9.5 0 0 0 13.584 13.284zm-20.379-26.206a10.5 10.5 0 1 0-14.826 0c4.098 4.085 10.728 4.085 14.826 0zM262.956 842.96a7.017 7.017 0 0 0-.008-9.91 6.993 6.993 0 0 0-9.896 0 7.017 7.017 0 0 0-.008 9.91 7.04 7.04 0 0 0 9.912 0zm13.326-339.71a6.052 6.052 0 0 0-.073-8.522 5.964 5.964 0 0 0-8.47.074 5.999 5.999 0 0 0-1.537 5.77 5.956 5.956 0 0 0 4.199 4.224 5.913 5.913 0 0 0 5.735-1.546h.146zM656.84 182.766a7.5 7.5 0 1 0-10.68-10.532 7.5 7.5 0 0 0 10.68 10.532zm34.693-5.278a8.5 8.5 0 1 0-12.066-11.976 8.5 8.5 0 0 0 12.066 11.976zm596.094 359.137a1.55 1.55 0 0 0 0-2.25 1.6 1.6 0 1 0 0 2.25zm-610.689 700.319a6.983 6.983 0 0 0 1.532-7.621A7 7 0 0 0 672 1225a7 7 0 0 0-6.47 4.322 6.983 6.983 0 0 0 1.532 7.622 6.957 6.957 0 0 0 9.876 0zm-33.826-6.832a6.555 6.555 0 0 0 0-9.205 6.51 6.51 0 1 0-9.205 9.205 6.555 6.555 0 0 0 9.205 0zm-67.594-20.56a5 5 0 1 0-7.037-7.104 5 5 0 0 0 7.037 7.104zm-32.692-13.717a4.011 4.011 0 0 0 0-5.67 4.011 4.011 0 0 0-5.652 0 4.011 4.011 0 0 0 0 5.67 4.011 4.011 0 0 0 5.652 0zm-29.596-12.581a6 6 0 1 0-8.46-8.508 6 6 0 0 0 8.46 8.508zm-28.583-15.587a8 8 0 1 0-11.295-11.334 8 8 0 0 0 11.295 11.334zm-29.267-18.154c3.502-3.328 3.492-8.708-.021-12.025-3.514-3.317-9.204-3.317-12.718 0-3.513 3.316-3.523 8.697-.02 12.025 3.53 3.316 9.229 3.316 12.758 0zm-28.019-20.146a9 9 0 1 0-12.723-12.734 9 9 0 0 0 12.723 12.734zm-26.142-21.151a9.5 9.5 0 1 0-13.438-13.432 9.5 9.5 0 0 0 13.438 13.432zm-24.306-23.297a10.483 10.483 0 0 0 2.29-11.436A10.5 10.5 0 0 0 369.5 1067a10.5 10.5 0 0 0-9.704 6.483 10.483 10.483 0 0 0 2.291 11.436 10.456 10.456 0 0 0 14.826 0zm-24-25.018a10.465 10.465 0 0 0 2.29-11.424A10.5 10.5 0 0 0 345.5 1042a10.5 10.5 0 0 0-9.704 6.477 10.465 10.465 0 0 0 2.291 11.424 10.412 10.412 0 0 0 14.826 0zm-22.405-28.371a8.518 8.518 0 0 0 1.845-9.275A8.5 8.5 0 0 0 324.5 1017a8.5 8.5 0 0 0-7.853 5.255 8.518 8.518 0 0 0 1.845 9.274 8.541 8.541 0 0 0 12.016 0zM246.66 880.67a8.016 8.016 0 0 0-.004-11.325 7.993 7.993 0 0 0-11.312 0 8.016 8.016 0 0 0-.005 11.324 8.04 8.04 0 0 0 11.322 0zm701.415 363.413c3.902-3.91 3.9-10.246-.005-14.153a9.993 9.993 0 0 0-14.14 0c-3.905 3.907-3.907 10.243-.005 14.153a10.04 10.04 0 0 0 14.15 0zm-28.765 13.218a15.983 15.983 0 0 0 3.473-17.427A16 16 0 0 0 908 1230a16 16 0 0 0-14.783 9.874 15.983 15.983 0 0 0 3.474 17.427 15.957 15.957 0 0 0 22.618 0zm-247.073 5.936a5.98 5.98 0 0 0 0-8.48 5.997 5.997 0 0 0-8.48 8.48 5.98 5.98 0 0 0 8.48 0zm-33.452-5.201a7.085 7.085 0 0 0-.85-8.965 7.033 7.033 0 0 0-8.939-.853 7.035 7.035 0 0 0 0 9.818 7.082 7.082 0 0 0 9.79 0zm-29.465-4.842c3.586-3.711 4.665-9.302 2.733-14.163-1.932-4.86-6.493-8.031-11.553-8.031-5.06 0-9.621 3.17-11.553 8.031-1.932 4.86-.853 10.452 2.733 14.163 2.336 2.436 5.51 3.806 8.82 3.806 3.31 0 6.484-1.37 8.82-3.806zm-34.375-12.29c4.084-4.107 4.072-10.744-.027-14.836-4.1-4.09-10.737-4.09-14.836 0-4.099 4.092-4.111 10.73-.027 14.836a10.5 10.5 0 0 0 14.89 0zm-36.115-17.084a3.976 3.976 0 0 0 0-5.64 3.984 3.984 0 0 0-5.66 0 3.976 3.976 0 0 0 0 5.64 3.984 3.984 0 0 0 5.66 0zm-30.532-12.62a6.003 6.003 0 0 0-.062-8.44 6.031 6.031 0 0 0-8.455-.061 6.02 6.02 0 0 0-1.58 5.818 6.033 6.033 0 0 0 4.26 4.273 6.047 6.047 0 0 0 5.837-1.544v-.047z"/><circle cx="474" cy="1191" r="7"/><path d="M449.654 1178.66a8 8 0 1 0-11.309-11.32 8 8 0 0 0 11.31 11.32zm-27.974-18.956a8.763 8.763 0 0 0-.235-12.125 8.766 8.766 0 0 0-12.125-.283 8.763 8.763 0 0 0 .235 12.125 8.766 8.766 0 0 0 12.125.283z"/><circle cx="388" cy="1132" r="9"/><path d="M369.221 1116.214a9.5 9.5 0 1 0-13.442-13.428 9.5 9.5 0 0 0 13.442 13.428zm-23.276-24.31c4.084-4.107 4.072-10.744-.027-14.836-4.1-4.09-10.737-4.09-14.836 0-4.099 4.092-4.111 10.73-.027 14.836a10.5 10.5 0 0 0 14.89 0zm-23.024-25.96a10.517 10.517 0 0 0 2.28-11.454 10.5 10.5 0 0 0-9.701-6.49 10.5 10.5 0 0 0-9.701 6.49 10.517 10.517 0 0 0 2.28 11.454 10.54 10.54 0 0 0 14.842 0zm380.175 229.152a6.5 6.5 0 1 0-9.192-9.192 6.5 6.5 0 0 0 9.192 9.192zm-34.131-4.144a7.018 7.018 0 0 0-.02-9.904 6.993 6.993 0 0 0-9.89 0 7.018 7.018 0 0 0-.02 9.904 7.042 7.042 0 0 0 9.93 0zm-29.891-1.935c5.25-5.28 5.232-13.813-.038-19.072-5.27-5.26-13.803-5.26-19.072 0-5.27 5.259-5.287 13.792-.038 19.072a13.5 13.5 0 0 0 19.148 0zm-40.254-14.181a4 4 0 1 0-5.64-5.672 4 4 0 0 0 5.64 5.672zm-32.98-10.985a4.034 4.034 0 0 0-.015-5.677 3.986 3.986 0 0 0-5.65 0 4.034 4.034 0 0 0-.015 5.677 4.084 4.084 0 0 0 5.68 0zm-32.012-12.023a4 4 0 1 0-5.656-5.656 4 4 0 0 0 5.656 5.656zm-31.203-13.384a5 5 0 1 0-7.25-6.888 5 5 0 0 0 7.25 6.888zm-30.283-14.991a5.857 5.857 0 0 0 0-8.166 5.75 5.75 0 0 0-10.231 2.35 5.76 5.76 0 0 0 2.31 5.816 5.843 5.843 0 0 0 7.921 0zm-28.526-15.663a7.5 7.5 0 1 0-10.632-10.58 7.5 7.5 0 0 0 10.632 10.58z"/><circle cx="409.5" cy="1183.5" r="8.5"/><path d="M388.38 1168.513c3.502-3.328 3.492-8.708-.021-12.025-3.514-3.317-9.204-3.317-12.718 0-3.513 3.316-3.523 8.697-.02 12.025 3.53 3.316 9.229 3.316 12.758 0zm-26.042-22.107a9.017 9.017 0 0 0 1.984-9.827A9 9 0 0 0 356 1131a9 9 0 0 0-8.322 5.579 9.017 9.017 0 0 0 1.984 9.827 9.04 9.04 0 0 0 12.676 0zm-25.141-23.169a9.5 9.5 0 1 0-13.395-13.474 9.5 9.5 0 0 0 13.395 13.474zm-22.444-24.451a10.983 10.983 0 0 0 2.416-11.985A11 11 0 0 0 307 1080a11 11 0 0 0-10.17 6.8 10.983 10.983 0 0 0 2.417 11.986 10.956 10.956 0 0 0 15.506 0zm-22.678-26.719c3.902-3.907 3.9-10.236-.005-14.14-3.905-3.903-10.235-3.903-14.14 0-3.905 3.904-3.907 10.233-.005 14.14a10 10 0 0 0 14.15 0zm-21.695-28.554c3.502-3.328 3.492-8.708-.021-12.025-3.514-3.317-9.204-3.317-12.718 0-3.513 3.316-3.523 8.697-.02 12.025 3.53 3.316 9.229 3.316 12.758 0zm-48.537-85.851c5.59-5.689 5.535-14.823-.12-20.445-5.656-5.623-14.79-5.623-20.446 0-5.655 5.622-5.71 14.756-.12 20.445a14.5 14.5 0 0 0 20.686 0zm445.097 363.264c4.088-4.108 4.079-10.755-.02-14.853-4.1-4.097-10.74-4.097-14.84 0-4.099 4.098-4.108 10.745-.02 14.853a10.54 10.54 0 0 0 14.88 0zm-36.84-8.834a6.5 6.5 0 1 0-9.2-9.184 6.5 6.5 0 0 0 9.2 9.184zm-34.42-10.425a4.482 4.482 0 0 0 .978-4.894A4.5 4.5 0 0 0 592.5 1294a4.5 4.5 0 0 0-4.158 2.773 4.482 4.482 0 0 0 .979 4.894 4.456 4.456 0 0 0 6.358 0zm-36.105-12.092a1.52 1.52 0 1 0-2.15-2.15 1.52 1.52 0 0 0 2.15 2.15zm-31.5-10.514a2.2 2.2 0 0 0 0-3.1 2.15 2.15 0 0 0-3.15 0 2.2 2.2 0 0 0 0 3.1 2.2 2.2 0 0 0 3.15 0zm-30.252-11.935a5 5 0 1 0-5.647-8.252 5 5 0 0 0 5.647 8.252zm-29.593-14.888a5.983 5.983 0 0 0 1.317-6.532A6 6 0 0 0 464 1242a6 6 0 0 0-5.547 3.706 5.983 5.983 0 0 0 1.318 6.532 5.956 5.956 0 0 0 8.458 0zm-30.156-16.12a6.5 6.5 0 1 0-9.149-9.236 6.5 6.5 0 0 0 9.149 9.236zm-28.266-18.32a7.5 7.5 0 1 0-10.616-10.596 7.5 7.5 0 0 0 10.616 10.596zm-27.31-19.276a8.5 8.5 0 1 0-11.997-12.044 8.5 8.5 0 0 0 11.997 12.044zm-27.141-21.135a9.017 9.017 0 0 0 1.96-9.82A9 9 0 0 0 349 1162a9 9 0 0 0-8.317 5.566 9.017 9.017 0 0 0 1.96 9.821 9.04 9.04 0 0 0 12.714 0zm-20.752-18.796a14.983 14.983 0 0 0 3.253-16.336A15 15 0 0 0 324 1133a15 15 0 0 0-13.858 9.255 14.983 14.983 0 0 0 3.253 16.336 14.957 14.957 0 0 0 21.21 0zm-27.712-27.386a10.688 10.688 0 0 0 2.74-10.312 10.659 10.659 0 0 0-7.541-7.533 10.631 10.631 0 0 0-10.28 2.778c-3.858 4.194-3.731 10.691.288 14.732a10.606 10.606 0 0 0 14.698.335h.095zm-23.107-25.451c4.29-4.294 4.285-11.25-.01-15.538-4.296-4.288-11.256-4.288-15.552 0-4.295 4.289-4.3 11.244-.01 15.538a10.957 10.957 0 0 0 15.572 0zm-22.609-27.791a10 10 0 1 0-14.354-13.926 10 10 0 0 0 14.354 13.926zm-39.517-58.31a8 8 0 1 0-11.32-11.306 8 8 0 0 0 11.32 11.306z"/><path d="M194.58 962.615a14.983 14.983 0 0 0 3.285-16.345A15 15 0 0 0 184 937a15 15 0 0 0-13.865 9.27 14.983 14.983 0 0 0 3.284 16.345 14.957 14.957 0 0 0 21.162 0zm-19.05-36.108a8.517 8.517 0 0 0-.026-12.021 8.493 8.493 0 0 0-12.008 0 8.517 8.517 0 0 0-.027 12.02 8.54 8.54 0 0 0 12.062 0zm1234.861-94.153a9.017 9.017 0 0 0-.036-12.724 8.993 8.993 0 0 0-12.71 0 9.017 9.017 0 0 0-.036 12.724 9.04 9.04 0 0 0 12.782 0zm-748.858 514.134a8.5 8.5 0 1 0-12.066-11.976 8.5 8.5 0 0 0 12.066 11.976zm-72.287-18.238a2.5 2.5 0 0 0 0-3.5 2.45 2.45 0 0 0-3.45 0 2.4 2.4 0 0 0 0 3.5 2.45 2.45 0 0 0 3.45 0zm-33.669-10.657a1.52 1.52 0 0 0-2.15-2.15 1.45 1.45 0 0 0 0 2.1 1.55 1.55 0 0 0 2.15.05zm-31.502-11.486a2.25 2.25 0 1 0-3.15-3.214 2.25 2.25 0 0 0 3.15 3.214zm-31.111-12.137a3.484 3.484 0 0 0 .772-3.808A3.5 3.5 0 0 0 490.5 1288a3.5 3.5 0 0 0-3.236 2.162 3.484 3.484 0 0 0 .772 3.807 3.459 3.459 0 0 0 4.928 0zm-31.284-14.272a4.51 4.51 0 0 0 0-6.377 4.492 4.492 0 0 0-6.362 0 4.517 4.517 0 0 0 0 6.377 4.537 4.537 0 0 0 6.362 0zm-29.175-16.013a5.079 5.079 0 0 0 0-7.2 5.128 5.128 0 0 0-7.218 0 5.13 5.13 0 0 0 .217 7.028 5.08 5.08 0 0 0 7.001.172zm-28.572-16.735a6.983 6.983 0 0 0 1.539-7.624A7 7 0 0 0 399 1235a7 7 0 0 0-6.472 4.326 6.983 6.983 0 0 0 1.54 7.624 6.958 6.958 0 0 0 9.865 0zm-27.286-18.283a8 8 0 1 0-11.295-11.334 8 8 0 0 0 11.295 11.334zm-27.13-21.163a8.5 8.5 0 1 0-12.034-12.008 8.5 8.5 0 0 0 12.034 12.008zm-26.126-22.167a9 9 0 1 0-12.782-12.674 9 9 0 0 0 12.782 12.674zm-24.328-23.365a9.892 9.892 0 0 0 2.178-10.832c-1.547-3.716-5.194-6.14-9.241-6.14s-7.694 2.424-9.24 6.14a9.892 9.892 0 0 0 2.177 10.832A9.737 9.737 0 0 0 292 1165a9.737 9.737 0 0 0 7.063-3.028zm-22.446-23.343a11.483 11.483 0 0 0 2.511-12.527A11.5 11.5 0 0 0 268.5 1119a11.5 11.5 0 0 0-10.628 7.102 11.483 11.483 0 0 0 2.51 12.527 11.456 11.456 0 0 0 16.235 0zm-22.975-26.99c4.483-4.498 4.477-11.78-.014-16.271-4.49-4.49-11.766-4.49-16.256 0s-4.497 11.773-.014 16.27c4.505 4.482 11.78 4.482 16.284 0zm-20.866-26.842a11.017 11.017 0 0 0 2.387-11.999A11 11 0 0 0 225 1066a11 11 0 0 0-10.163 6.798 11.017 11.017 0 0 0 2.387 12c4.306 4.27 11.246 4.27 15.552 0zm-20.701-29.73c3.902-3.907 3.9-10.236-.005-14.14-3.905-3.903-10.235-3.903-14.14 0-3.905 3.904-3.907 10.233-.005 14.14a10 10 0 0 0 14.15 0zm-36.428-61.4a8 8 0 1 0-11.295-11.334 8 8 0 0 0 11.295 11.334zm-27.14-62.153a8.5 8.5 0 1 0-12.015-12.028 8.5 8.5 0 0 0 12.015 12.028zm-6.19-27.169c6.246-6.258 6.244-16.4-.004-22.654-6.249-6.255-16.377-6.255-22.626 0-6.248 6.255-6.25 16.396-.004 22.654 6.271 6.207 16.363 6.207 22.634 0zm-14.001-38.228a9.5 9.5 0 1 0-13.632-13.234 9.5 9.5 0 0 0 13.632 13.234zm1310.076-298.711a5.525 5.525 0 0 0 0-7.792 5.475 5.475 0 0 0-7.763 0 5.47 5.47 0 0 0 0 7.792 5.523 5.523 0 0 0 7.763 0zM551.225 1344.26a1.05 1.05 0 1 0-1.45-1.52 1.05 1.05 0 0 0 1.45 1.52zm-32.875-10.935a1.2 1.2 0 0 0 0-1.65 1.15 1.15 0 0 0-1.7 0 1.2 1.2 0 0 0 0 1.65 1.15 1.15 0 0 0 1.7 0zm-31.15-12.169a2.4 2.4 0 0 0 0-3.35 2.5 2.5 0 0 0-3.4 0 2.4 2.4 0 0 0 0 3.35 2.4 2.4 0 0 0 3.4 0zm-30.365-13.335a4 4 0 1 0-5.67-5.642 4 4 0 0 0 5.67 5.642zm-29.332-15.28a4.892 4.892 0 0 0 0-7.044 4.892 4.892 0 0 0-7.044 0 4.98 4.98 0 0 0 7.044 7.044zm-29.255-17.304a6 6 0 1 0-8.496-8.474 6 6 0 0 0 8.496 8.474zm-28.32-17.443a7 7 0 1 0-7.857-11.587 7 7 0 0 0 7.857 11.587zm-26.988-20.18a8.195 8.195 0 0 0-.33-11.218 8.145 8.145 0 0 0-11.19-.33 8.094 8.094 0 0 0 0 11.548 8.145 8.145 0 0 0 11.52 0zm-26.583-21.227a9.017 9.017 0 0 0 1.96-9.82A9 9 0 0 0 310 1201a9 9 0 0 0-8.317 5.566 9.017 9.017 0 0 0 1.96 9.821 9.04 9.04 0 0 0 12.714 0zm-25.041-22.27a9.5 9.5 0 1 0-13.632-13.234 9.5 9.5 0 0 0 13.632 13.234zm-20.57-21.357a14.5 14.5 0 1 0-20.492 0c5.66 5.654 14.831 5.654 20.492 0zm-25.134-28.109a11.5 11.5 0 1 0-16.224 0c4.487 4.465 11.737 4.465 16.224 0zm-22-27a11.5 11.5 0 1 0-16.224 0c4.487 4.465 11.737 4.465 16.224 0zm-20.954-27.063c4.47-4.495 4.454-11.756-.035-16.232-4.49-4.475-11.757-4.475-16.246 0-4.489 4.476-4.505 11.737-.035 16.232a11.456 11.456 0 0 0 16.316 0zm-19.745-29.652a10.5 10.5 0 1 0-14.826 0c4.098 4.085 10.728 4.085 14.826 0zm-19.266-31.269a8 8 0 1 0-11.295-11.334 8 8 0 0 0 11.295 11.334zm-28.715-60.732c4.094-4.107 4.09-10.758-.01-14.859-4.1-4.101-10.744-4.101-14.844 0s-4.104 10.752-.01 14.859a10.54 10.54 0 0 0 14.864 0zm-12.987-32.031c4.084-4.107 4.072-10.744-.027-14.836-4.1-4.09-10.737-4.09-14.836 0-4.099 4.092-4.111 10.73-.027 14.836a10.5 10.5 0 0 0 14.89 0z"/><path d="M110.921 903.928a10.5 10.5 0 1 0-14.842 0c4.1 4.096 10.743 4.096 14.842 0zm-9.744-32.965a10 10 0 1 0-14.354-13.926 10 10 0 0 0 14.354 13.926zm413.048 490.297a1.05 1.05 0 1 0-1.45-1.52 1.05 1.05 0 0 0 1.45 1.52zm-32.025-12.046a2.4 2.4 0 1 0-3.4 0 2.5 2.5 0 0 0 3.4 0zm-30.163-13.177a3.59 3.59 0 0 0-5.074-5.074 3.59 3.59 0 0 0 5.074 5.074zm-30.357-15.352a4.5 4.5 0 1 0-6.36-6.37 4.5 4.5 0 0 0 6.36 6.37zm-29.308-16.28a5.47 5.47 0 0 0 0-7.784 5.44 5.44 0 0 0-7.75 0 5.48 5.48 0 0 0-1.44 5.295 5.492 5.492 0 0 0 3.875 3.892 5.505 5.505 0 0 0 5.315-1.403zm-28.41-17.485a6.983 6.983 0 0 0-.016-9.877 7.007 7.007 0 0 0-9.892 0 6.983 6.983 0 0 0-.016 9.877 6.957 6.957 0 0 0 9.924 0z"/><circle cx="331" cy="1262" r="8"/><path d="M310.527 1246.51a8.517 8.517 0 0 0-.022-12.023 8.493 8.493 0 0 0-12.01 0 8.517 8.517 0 0 0-.022 12.024 8.54 8.54 0 0 0 12.054 0zm-26.173-22.119a9.04 9.04 0 0 0 0-12.782 9.017 9.017 0 0 0-12.724.036 8.993 8.993 0 0 0 0 12.71 9.017 9.017 0 0 0 12.724.036zm-23.578-22.594a11.017 11.017 0 0 0 2.387-11.999A11 11 0 0 0 253 1183a11 11 0 0 0-10.163 6.798 11.017 11.017 0 0 0 2.387 12c4.306 4.27 11.246 4.27 15.552 0zm-23.159-24.168a11.483 11.483 0 0 0 2.511-12.527A11.5 11.5 0 0 0 229.5 1158a11.5 11.5 0 0 0-10.628 7.102 11.483 11.483 0 0 0 2.51 12.527 11.456 11.456 0 0 0 16.235 0zm-22.981-26.001c4.488-4.493 4.485-11.772-.006-16.261-4.49-4.49-11.77-4.49-16.26 0-4.491 4.49-4.494 11.768-.006 16.26a11.5 11.5 0 0 0 16.272 0zm-21-28c4.488-4.493 4.485-11.772-.006-16.261-4.49-4.49-11.77-4.49-16.26 0-4.491 4.49-4.494 11.768-.006 16.26a11.5 11.5 0 0 0 16.272 0zm-20.134-27.177c4.673-4.687 4.663-12.27-.022-16.945-4.685-4.675-12.275-4.675-16.96 0-4.685 4.675-4.695 12.258-.022 16.945a11.956 11.956 0 0 0 17.004 0zm-18.725-30.655a11.017 11.017 0 0 0 2.386-11.999A11 11 0 0 0 147 1047a11 11 0 0 0-10.163 6.797 11.017 11.017 0 0 0 2.386 11.999c4.306 4.272 11.248 4.272 15.554 0zm-18.6-29.833a10 10 0 1 0-14.354-13.926 10 10 0 0 0 14.354 13.926zm-15.114-30.884a10 10 0 1 0-14.126 0c3.903 3.895 10.223 3.895 14.126 0zm-14.123-31.153c4.088-4.108 4.079-10.755-.02-14.853-4.1-4.097-10.74-4.097-14.84 0-4.099 4.098-4.108 10.745-.02 14.853a10.54 10.54 0 0 0 14.88 0zm-12.164-32.129a11.017 11.017 0 0 0 2.387-11.999A11 11 0 0 0 87 923a11 11 0 0 0-10.163 6.798 11.017 11.017 0 0 0 2.387 12c4.306 4.27 11.246 4.27 15.552 0zm-10.999-33.035a10.983 10.983 0 0 0 2.386-11.977A11 11 0 0 0 76 890a11 11 0 0 0-10.163 6.785 10.983 10.983 0 0 0 2.386 11.977 10.956 10.956 0 0 0 15.554 0zm-9.835-32.872c4.086-4.101 4.076-10.734-.023-14.823-4.1-4.09-10.739-4.09-14.838 0-4.1 4.089-4.11 10.722-.023 14.823a10.457 10.457 0 0 0 14.884 0zm538.432 543.514a5.5 5.5 0 1 0-7.748-7.808 5.5 5.5 0 0 0 7.748 7.808zm-161.72-51.744a8 8 0 1 0-11.309-11.32 8 8 0 0 0 11.31 11.32zm-34.126-18.56a3.372 3.372 0 0 0-.52-4.11 3.395 3.395 0 0 0-4.122-.519 3.465 3.465 0 0 0 0 4.629 3.441 3.441 0 0 0 4.642 0zm-29.09-16.004a5.315 5.315 0 0 0 0-7.528 5.343 5.343 0 0 0-7.562 0 5.362 5.362 0 0 0 2.246 9.289 5.344 5.344 0 0 0 5.316-1.76zm-28.354-16.988a6.5 6.5 0 1 0-9.168-9.216 6.5 6.5 0 0 0 9.168 9.216zm-28.122-19.188a6.983 6.983 0 0 0-.016-9.877 7.007 7.007 0 0 0-9.892 0 6.983 6.983 0 0 0-.016 9.877 6.957 6.957 0 0 0 9.924 0zm-27.464-19.398a8.5 8.5 0 1 0-11.997-12.044 8.5 8.5 0 0 0 11.997 12.044zm-22.598-18.641c5.467-5.464 5.466-14.32 0-19.784-5.468-5.463-14.332-5.463-19.8 0-5.466 5.463-5.467 14.32 0 19.784a13.957 13.957 0 0 0 19.8 0zm-27.723-25.883c3.819-3.943 3.755-10.233-.142-14.099a9.985 9.985 0 0 0-14.07 0c-3.897 3.866-3.96 10.156-.142 14.1a10.085 10.085 0 0 0 14.354 0zm-23.543-23.368c4.49-4.492 4.488-11.772-.003-16.262-4.49-4.49-11.771-4.49-16.262 0s-4.492 11.77-.003 16.262a11.5 11.5 0 0 0 16.268 0zm-22.998-26.002c4.488-4.493 4.485-11.772-.006-16.261-4.49-4.49-11.77-4.49-16.26 0-4.491 4.49-4.494 11.768-.006 16.26a11.5 11.5 0 0 0 16.272 0zm-22.134-26.125c4.673-4.7 4.663-12.301-.022-16.988-4.685-4.687-12.275-4.687-16.96 0-4.685 4.687-4.695 12.289-.022 16.988 4.712 4.663 12.292 4.663 17.004 0zm-21.025-27.027a11.983 11.983 0 0 0 2.611-13.07A12 12 0 0 0 155 1110a12 12 0 0 0-11.088 7.406 11.983 11.983 0 0 0 2.61 13.07 11.956 11.956 0 0 0 16.955 0zm-19.847-28.81a11.534 11.534 0 0 0 2.495-12.554A11.5 11.5 0 0 0 135.5 1082a11.5 11.5 0 0 0-10.625 7.112 11.534 11.534 0 0 0 2.495 12.554 11.58 11.58 0 0 0 16.26 0zm-17.128-29.197c4.673-4.692 4.663-12.281-.022-16.96-4.685-4.679-12.275-4.679-16.96 0-4.685 4.679-4.695 12.268-.022 16.96a12 12 0 0 0 17.004 0zm-17.562-31.543c4.088-4.108 4.079-10.755-.02-14.853-4.1-4.097-10.74-4.097-14.84 0-4.099 4.098-4.108 10.745-.02 14.853a10.54 10.54 0 0 0 14.88 0zm-15.163-30.147a11 11 0 1 0-15.554 0c4.295 4.295 11.259 4.295 15.554 0zM79.776 978.78a11 11 0 1 0-15.552 0c4.295 4.293 11.257 4.293 15.552 0zm-12.134-32.141c4.483-4.498 4.477-11.78-.014-16.271-4.49-4.49-11.766-4.49-16.256 0s-4.497 11.773-.014 16.27c4.505 4.482 11.78 4.482 16.284 0zm-11.844-32.846c4.27-4.315 4.27-11.27 0-15.586a11.035 11.035 0 0 0-15.556 0 10.983 10.983 0 0 0 0 15.586 11.035 11.035 0 0 0 15.556 0zm-9.005-34.035a11.035 11.035 0 0 0 0-15.556c-4.315-4.27-11.27-4.27-15.586 0a11.035 11.035 0 0 0 0 15.556 10.983 10.983 0 0 0 15.586 0zm-8.707-33.678c3.885-3.925 3.885-10.254 0-14.18a10.081 10.081 0 0 0-14.152 0 10.03 10.03 0 0 0 0 14.18 10.034 10.034 0 0 0 14.152 0zm1428.826-468.143a10.5 10.5 0 1 0-14.824 0c4.098 4.084 10.726 4.084 14.824 0zM442.263 1391.253a2.498 2.498 0 0 0 0-3.544 2.546 2.546 0 0 0-3.526 0 2.498 2.498 0 0 0 0 3.544 2.45 2.45 0 0 0 3.526 0zm-30.433-13.433a3.976 3.976 0 0 0 0-5.64 3.984 3.984 0 0 0-5.66 0 3.976 3.976 0 0 0 0 5.64 3.984 3.984 0 0 0 5.66 0zm-30.284-16.295a5 5 0 1 0-7.092-7.05 5 5 0 0 0 7.092 7.05zm-28.298-16.288a6 6 0 1 0-8.496-8.474 6 6 0 0 0 8.496 8.474zm-28.464-18.397a7.517 7.517 0 0 0 1.65-8.191A7.5 7.5 0 0 0 319.5 1314a7.5 7.5 0 0 0-6.934 4.649 7.517 7.517 0 0 0 1.65 8.19 7.541 7.541 0 0 0 10.568 0zm-26.411-19.502a8.983 8.983 0 0 0-.012-12.708 9.007 9.007 0 0 0-12.722 0 8.983 8.983 0 0 0-.012 12.708 8.956 8.956 0 0 0 12.746 0zm-22.747-17.459a14.5 14.5 0 1 0-20.252 0c5.633 5.495 14.62 5.495 20.252 0zm-29.405-26.665a9.5 9.5 0 1 0-13.442-13.428 9.5 9.5 0 0 0 13.442 13.428zm-24.444-22.418a11.017 11.017 0 0 0 2.386-11.999A11 11 0 0 0 214 1222a11 11 0 0 0-10.163 6.797 11.017 11.017 0 0 0 2.386 11.999c4.306 4.272 11.248 4.272 15.554 0zm-23.141-24.168c4.488-4.493 4.485-11.772-.006-16.261-4.49-4.49-11.77-4.49-16.26 0-4.491 4.49-4.494 11.768-.006 16.26a11.5 11.5 0 0 0 16.272 0zm-22.134-26.159c4.673-4.692 4.663-12.281-.022-16.96-4.685-4.679-12.275-4.679-16.96 0-4.685 4.679-4.695 12.268-.022 16.96a12 12 0 0 0 17.004 0zm-22.012-26.955c4.682-4.696 4.68-12.303-.006-16.995s-12.282-4.692-16.968 0-4.688 12.3-.006 16.995c4.709 4.648 12.271 4.648 16.98 0zm-19.994-28.039c4.678-4.69 4.671-12.282-.014-16.964-4.686-4.681-12.278-4.681-16.964 0-4.685 4.682-4.692 12.274-.014 16.964a12 12 0 0 0 16.992 0zm-19.034-28.984a11.983 11.983 0 0 0 2.63-13.074A12 12 0 0 0 107 1086a12 12 0 0 0-11.092 7.417 11.983 11.983 0 0 0 2.63 13.074 11.957 11.957 0 0 0 16.924 0zm-18.82-29.852c4.483-4.498 4.477-11.78-.014-16.271-4.49-4.49-11.766-4.49-16.256 0s-4.497 11.773-.014 16.27c4.505 4.482 11.78 4.482 16.284 0zm-16.889-30.853a10.983 10.983 0 0 0 2.416-11.985A11 11 0 0 0 72 1027a11 11 0 0 0-10.17 6.8 10.983 10.983 0 0 0 2.417 11.986 10.956 10.956 0 0 0 15.506 0zm-14.13-30.163a11.483 11.483 0 0 0 2.504-12.525A11.5 11.5 0 0 0 57.5 996a11.5 11.5 0 0 0-10.627 7.098 11.483 11.483 0 0 0 2.504 12.525 11.456 11.456 0 0 0 16.246 0zM51.63 983.63a11.492 11.492 0 0 0 0-16.26 11.492 11.492 0 0 0-16.26 0 11.492 11.492 0 0 0 0 16.26 11.492 11.492 0 0 0 16.26 0zm-12-33a11.492 11.492 0 0 0 0-16.26 11.492 11.492 0 0 0-16.26 0 11.492 11.492 0 0 0 0 16.26 11.492 11.492 0 0 0 16.26 0zm-9.969-31.969c4.452-4.515 4.452-11.768 0-16.283a11.5 11.5 0 0 0-16.283 0 11.5 11.5 0 0 0 0 16.283c4.515 4.452 11.768 4.452 16.283 0zm-9.863-33.903c4.27-4.307 4.27-11.25 0-15.556-4.307-4.27-11.25-4.27-15.556 0a10.953 10.953 0 0 0 0 15.556 10.953 10.953 0 0 0 15.556 0zm416.702 533.71a1.4 1.4 0 1 0-2 0 1.35 1.35 0 0 0 2 0zm-30.39-13.318a3.018 3.018 0 0 0 .665-3.285A3 3 0 0 0 404 1400a3 3 0 0 0-2.775 1.865 3.018 3.018 0 0 0 .665 3.285 3.043 3.043 0 0 0 4.22 0zm-29.292-15.311a4 4 0 1 0-5.637-5.678 4 4 0 0 0 5.637 5.678zm-28.734-15.714a6.517 6.517 0 0 0 1.424-7.098A6.5 6.5 0 0 0 343.5 1363a6.5 6.5 0 0 0-6.008 4.027 6.517 6.517 0 0 0 1.424 7.098 6.541 6.541 0 0 0 9.168 0zm-28.063-18.243a7.142 7.142 0 0 0 0-9.87 7.088 7.088 0 0 0-9.895 0 7.098 7.098 0 0 0-2.986 7.284 7.115 7.115 0 0 0 5.579 5.564 7.133 7.133 0 0 0 7.302-2.978zm-23.969-14.86c5.267-5.27 5.263-13.808-.008-19.073-5.272-5.265-13.816-5.265-19.088 0-5.271 5.265-5.275 13.803-.008 19.073a13.456 13.456 0 0 0 19.104 0zm-30.95-23.692a9.5 9.5 0 1 0-13.205-13.66 9.5 9.5 0 0 0 13.205 13.66zm-22.492-18.71c5.855-5.864 5.853-15.365-.005-21.225-5.857-5.86-15.353-5.86-21.21 0-5.858 5.86-5.86 15.361-.006 21.224 5.87 5.841 15.352 5.841 21.222 0zm-27.668-26.73c4.086-4.101 4.076-10.734-.023-14.823-4.1-4.09-10.739-4.09-14.838 0-4.1 4.089-4.11 10.722-.023 14.823a10.457 10.457 0 0 0 14.884 0z"/><circle cx="182.5" cy="1240.5" r="13.5"/><path d="M167.612 1222.635a11.483 11.483 0 0 0 2.518-12.53A11.5 11.5 0 0 0 159.5 1203a11.5 11.5 0 0 0-10.63 7.106 11.483 11.483 0 0 0 2.518 12.529 11.457 11.457 0 0 0 16.224 0zm-22.15-26.127a12 12 0 1 0-16.924 0c4.68 4.656 12.243 4.656 16.924 0zm-20.972-27.011c4.682-4.691 4.68-12.293-.006-16.981-4.686-4.688-12.282-4.688-16.968 0s-4.688 12.29-.006 16.981c4.698 4.67 12.282 4.67 16.98 0zm-20.01-28.007a12 12 0 1 0-16.96 0c4.685 4.68 12.275 4.68 16.96 0zm-18.152-29.14a12.5 12.5 0 1 0-17.656 0c4.88 4.867 12.777 4.867 17.656 0zm-18.55-30.572c4.296-4.296 4.296-11.26 0-15.556-4.296-4.296-11.26-4.296-15.556 0-4.296 4.296-4.296 11.26 0 15.556 4.296 4.296 11.26 4.296 15.556 0zm-15.123-31.163c4.46-4.507 4.46-11.764 0-16.27-4.506-4.46-11.763-4.46-16.27 0a11.468 11.468 0 0 0 0 16.27 11.468 11.468 0 0 0 16.27 0zM37.63 1019.62a11.466 11.466 0 0 0 0-16.24 11.474 11.474 0 0 0-16.26 0 11.466 11.466 0 0 0 0 16.24 11.474 11.474 0 0 0 16.26 0zm-12.98-31.97c4.467-4.515 4.467-11.785 0-16.3-4.515-4.467-11.785-4.467-16.3 0-4.467 4.515-4.467 11.785 0 16.3 4.515 4.467 11.785 4.467 16.3 0zm-12.109-48.28c-3.295-3.187-8.19-4.219-12.541-2.643v21.517c4.34 1.613 9.248.597 12.541-2.595a11.307 11.307 0 0 0 0-16.28zm389.38 493.934a3 3 0 1 0-3.842-4.608 3 3 0 0 0 3.842 4.608zm-30.241-14.619a4.5 4.5 0 1 0-6.36-6.37 4.5 4.5 0 0 0 6.36 6.37zm-28.408-15.472a6 6 0 1 0-8.544-8.426 6 6 0 0 0 8.544 8.426zm-29.307-17.261a7.018 7.018 0 0 0-.02-9.904 6.993 6.993 0 0 0-9.89 0 7.018 7.018 0 0 0-.02 9.904 7.042 7.042 0 0 0 9.93 0zm-28.191-20.178a7.488 7.488 0 0 0 0-10.656 7.536 7.536 0 0 0-10.656 10.656 7.488 7.488 0 0 0 10.656 0zm-26.458-18.657a9.5 9.5 0 1 0-13.632-13.234 9.5 9.5 0 0 0 13.632 13.234zm-22.473-18.455c5.59-5.689 5.535-14.823-.12-20.445-5.656-5.623-14.79-5.623-20.446 0-5.655 5.622-5.71 14.756-.12 20.445a14.5 14.5 0 0 0 20.686 0zm-29.09-24.876a10.983 10.983 0 0 0 2.416-11.985A11 11 0 0 0 200 1285a11 11 0 0 0-10.17 6.8 10.983 10.983 0 0 0 2.417 11.986 10.956 10.956 0 0 0 15.506 0zm-25.534-24.57a9.5 9.5 0 1 0-13.438-13.432 9.5 9.5 0 0 0 13.438 13.432zm-22.589-23.583a11.5 11.5 0 1 0-16.26 0c4.49 4.49 11.77 4.49 16.26 0zm-23.134-26.158c4.678-4.69 4.671-12.282-.014-16.964-4.686-4.681-12.278-4.681-16.964 0-4.685 4.682-4.692 12.274-.014 16.964a12 12 0 0 0 16.992 0zm-21.144-26.149c4.87-4.886 4.863-12.794-.018-17.67-4.88-4.875-12.788-4.875-17.668 0-4.88 4.876-4.889 12.784-.018 17.67a12.5 12.5 0 0 0 17.704 0zm-20.006-27.994c4.876-4.884 4.871-12.795-.01-17.673-4.88-4.879-12.791-4.879-17.672 0-4.881 4.878-4.886 12.789-.01 17.673a12.5 12.5 0 0 0 17.692 0zm-20-29c4.876-4.884 4.871-12.795-.01-17.673-4.88-4.879-12.791-4.879-17.672 0-4.881 4.878-4.886 12.789-.01 17.673a12.5 12.5 0 0 0 17.692 0zm-18.714-29.701c4.49-4.49 4.49-11.772 0-16.263-4.491-4.49-11.773-4.49-16.264 0a11.5 11.5 0 0 0 16.264 16.264z"/><path d="M44.055 1091.041c6.593-6.677 6.593-17.405 0-24.082-6.674-6.612-17.436-6.612-24.11 0-6.593 6.677-6.593 17.405 0 24.082 6.674 6.612 17.436 6.612 24.11 0zm-20.44-35.386a11.468 11.468 0 0 0 0-16.27 11.468 11.468 0 0 0-16.27 0c-4.46 4.507-4.46 11.764 0 16.27 4.506 4.46 11.763 4.46 16.27 0zm-14.036-47.312A11.729 11.729 0 0 0 0 1005.08v22.84c3.53.414 7.058-.788 9.579-3.263a11.435 11.435 0 0 0 0-16.314zm386.445 452.681a2.15 2.15 0 0 0 0-3.05 2.157 2.157 0 0 0-3.05 3.05 2.15 2.15 0 0 0 3.05 0zm-30.01-14.254a3.433 3.433 0 0 0 0-4.816 3.483 3.483 0 0 0-4.791 0 3.43 3.43 0 0 0-1.132 3.412 3.41 3.41 0 0 0 2.53 2.543 3.39 3.39 0 0 0 3.393-1.139zm-28.664-15.237a4.875 4.875 0 0 0-2.155-8.413 4.883 4.883 0 0 0-4.824 1.633 4.875 4.875 0 0 0 0 6.78 4.882 4.882 0 0 0 6.98 0zm-28.412-16.589a6.983 6.983 0 0 0 1.532-7.621A7 7 0 0 0 304 1403a7 7 0 0 0-6.47 4.322 6.983 6.983 0 0 0 1.532 7.622 6.957 6.957 0 0 0 9.876 0zm-28.409-18.774a7.635 7.635 0 0 0-.823-9.96 7.74 7.74 0 0 0-10.026-.687 7.641 7.641 0 0 0-2.467 7.599 7.687 7.687 0 0 0 5.665 5.658 7.734 7.734 0 0 0 7.65-2.42v-.19zm-27.158-18.796a9.017 9.017 0 0 0-.01-12.737 8.993 8.993 0 0 0-12.723 0 9.017 9.017 0 0 0-.01 12.737 9.04 9.04 0 0 0 12.743 0zm-27.055-21.257a9.5 9.5 0 1 0-13.632-13.234 9.5 9.5 0 0 0 13.632 13.234zm-24.693-21.494a11.483 11.483 0 0 0 2.504-12.525A11.5 11.5 0 0 0 193.5 1315a11.5 11.5 0 0 0-10.627 7.098 11.483 11.483 0 0 0 2.504 12.525 11.456 11.456 0 0 0 16.246 0zm-25.711-23.686a10.5 10.5 0 1 0-14.824 0c4.098 4.084 10.726 4.084 14.824 0zm-24.135-24.193a10.965 10.965 0 0 0 2.386-11.966A11 11 0 0 0 144 1268a11 11 0 0 0-10.163 6.778 10.965 10.965 0 0 0 2.386 11.966 10.913 10.913 0 0 0 15.554 0zm-23.281-24.269c4.678-4.69 4.671-12.282-.014-16.964-4.686-4.681-12.278-4.681-16.964 0-4.685 4.682-4.692 12.274-.014 16.964a12 12 0 0 0 16.992 0zm-22.168-26.16a12.465 12.465 0 0 0 2.723-13.604A12.5 12.5 0 0 0 97.5 1215a12.5 12.5 0 0 0-11.551 7.711 12.465 12.465 0 0 0 2.723 13.604 12.412 12.412 0 0 0 17.656 0zm-21.008-27.121c3.586-3.711 4.665-9.302 2.733-14.163-1.932-4.86-6.493-8.031-11.553-8.031-5.06 0-9.621 3.17-11.553 8.031-1.932 4.86-.853 10.452 2.733 14.163 2.336 2.436 5.51 3.806 8.82 3.806 3.31 0 6.484-1.37 8.82-3.806zm-19.976-27.861c4.877-4.883 4.874-12.795-.007-17.674-4.881-4.879-12.793-4.879-17.674 0-4.881 4.88-4.884 12.791-.007 17.674a12.5 12.5 0 0 0 17.688 0zm-19.011-28.983a12.51 12.51 0 0 0 0-17.7c-4.892-4.867-12.793-4.867-17.686 0-4.863 4.896-4.863 12.804 0 17.7 4.893 4.867 12.794 4.867 17.686 0zm-18.719-30.692a11.472 11.472 0 0 0 0-16.276 11.423 11.423 0 0 0-16.228 0 11.472 11.472 0 0 0 0 16.276c4.492 4.456 11.736 4.456 16.228 0z"/><path d="M10.71 1075.334c-2.812-2.858-6.88-3.985-10.71-2.965v22.24c3.83 1.06 7.918-.072 10.71-2.965 2.106-2.162 3.29-5.096 3.29-8.155 0-3.059-1.184-5.993-3.29-8.155zm321.826 384.206A5.003 5.003 0 0 0 334 1456c0-1.33-.527-2.604-1.464-3.54a5.01 5.01 0 0 0-7.072 0A5.003 5.003 0 0 0 324 1456c0 1.33.527 2.604 1.464 3.54a5.01 5.01 0 0 0 7.072 0zm-28.5-15.504a7.118 7.118 0 0 0 0-9.818 7.069 7.069 0 0 0-9.818 9.818 7.118 7.118 0 0 0 9.818 0zM274.79 1425.8a7.482 7.482 0 0 0 1.643-8.168A7.5 7.5 0 0 0 269.5 1413a7.5 7.5 0 0 0-6.933 4.632 7.482 7.482 0 0 0 1.643 8.167 7.455 7.455 0 0 0 10.58 0zm-28.404-19.196a7.853 7.853 0 0 0-.72-10.357 7.789 7.789 0 0 0-10.334-.545 7.752 7.752 0 0 0-2.332 5.545c0 2.089.841 4.089 2.332 5.546a7.794 7.794 0 0 0 5.566 2.206 7.796 7.796 0 0 0 5.488-2.395zm-25.209-19.641a10 10 0 1 0-14.354-13.926 10 10 0 0 0 14.354 13.926zm-26.389-21.212c4.288-4.294 4.282-11.248-.013-15.535-4.295-4.288-11.255-4.288-15.55 0-4.295 4.287-4.3 11.24-.013 15.535a10.956 10.956 0 0 0 15.576 0zm-25.165-23.094a11.518 11.518 0 0 0 2.504-12.546A11.5 11.5 0 0 0 161.5 1323a11.5 11.5 0 0 0-10.627 7.11 11.518 11.518 0 0 0 2.504 12.547c4.5 4.457 11.746 4.457 16.246 0zm-22.306-20.347c6.246-6.249 6.244-16.378-.004-22.625-6.249-6.247-16.377-6.247-22.626 0-6.248 6.247-6.25 16.376-.004 22.625a16 16 0 0 0 22.634 0z"/><circle cx="112" cy="1286" r="12"/><path d="M98.328 1269.315a12.465 12.465 0 0 0 2.723-13.604A12.5 12.5 0 0 0 89.5 1248a12.5 12.5 0 0 0-11.551 7.711 12.465 12.465 0 0 0 2.723 13.604 12.412 12.412 0 0 0 17.656 0zm-20.013-25.003c6.247-6.249 6.246-16.379-.002-22.626-6.248-6.248-16.378-6.248-22.626 0-6.248 6.247-6.25 16.377-.002 22.626a16 16 0 0 0 22.63 0zm-22.103-29.134c5.05-5.08 5.05-13.276 0-18.356a12.962 12.962 0 0 0-18.384 0 12.922 12.922 0 0 0 0 18.356 12.962 12.962 0 0 0 18.384 0zm-20.859-28.868c4.863-4.882 4.863-12.777 0-17.66-4.898-4.867-12.808-4.867-17.706 0-4.863 4.883-4.863 12.778 0 17.66a12.465 12.465 0 0 0 17.706 0zm-16.003-48.818c-5.167-4.993-13.125-5.93-19.35-2.276v26.556c6.221 3.67 14.19 2.733 19.35-2.277 2.977-2.917 4.65-6.874 4.65-11.001s-1.673-8.084-4.65-11.002zm250.434 317.313a7.483 7.483 0 0 0 1.65-8.169A7.5 7.5 0 0 0 264.5 1442a7.5 7.5 0 0 0-6.934 4.636 7.483 7.483 0 0 0 1.65 8.17 7.456 7.456 0 0 0 10.568 0zm-28.137-19.155a7.983 7.983 0 0 0 1.746-8.711A8 8 0 0 0 236 1422a8 8 0 0 0-7.393 4.939 7.983 7.983 0 0 0 1.746 8.71 7.957 7.957 0 0 0 11.294 0zm-28.15-20.126a8.5 8.5 0 1 0-11.995-12.048 8.5 8.5 0 0 0 11.995 12.048zm-25.422-20.457c3.902-3.907 3.9-10.236-.005-14.14-3.905-3.903-10.235-3.903-14.14 0-3.905 3.904-3.907 10.233-.005 14.14a10 10 0 0 0 14.15 0zm-26.299-21.27a11.017 11.017 0 0 0 2.387-11.999A11 11 0 0 0 154 1355a11 11 0 0 0-10.163 6.798 11.017 11.017 0 0 0 2.387 12c4.306 4.27 11.246 4.27 15.552 0zm-24.951-23.775a10.5 10.5 0 1 0-14.652-15.044 10.5 10.5 0 0 0 14.652 15.044zm-24.049-24.242a11 11 0 1 0-15.552 0c4.295 4.293 11.257 4.293 15.552 0zm-22.448-24.465a12.465 12.465 0 0 0 2.723-13.604A12.5 12.5 0 0 0 81.5 1280a12.5 12.5 0 0 0-11.551 7.711 12.465 12.465 0 0 0 2.723 13.604 12.412 12.412 0 0 0 17.656 0zm-22.136-26.14a12.983 12.983 0 0 0 2.818-14.156A13 13 0 0 0 59 1253a13 13 0 0 0-12.01 8.019 12.983 12.983 0 0 0 2.818 14.156 12.956 12.956 0 0 0 18.384 0zm-22.02-27.003a12.952 12.952 0 0 0 0-18.384c-5.088-5.05-13.297-5.05-18.384 0-5.05 5.087-5.05 13.296 0 18.384a12.952 12.952 0 0 0 18.384 0zm-20.008-26.992a12.901 12.901 0 0 0 0-18.36 12.93 12.93 0 0 0-18.348 0 12.95 12.95 0 0 0 0 18.36 12.93 12.93 0 0 0 18.348 0zm181.334 224.342a8.5 8.5 0 1 0-11.997-12.044 8.5 8.5 0 0 0 11.997 12.044zm-26.396-20.192a9.5 9.5 0 1 0-13.205-13.66 9.5 9.5 0 0 0 13.205 13.66zm-25.189-21.394a10.5 10.5 0 1 0-14.826 0c4.098 4.085 10.728 4.085 14.826 0zm-26.001-22.999a10.5 10.5 0 1 0-14.824 0c4.098 4.084 10.726 4.084 14.824 0zm-24.967-24.033c4.084-4.107 4.072-10.744-.027-14.836-4.1-4.09-10.737-4.09-14.836 0-4.099 4.092-4.111 10.73-.027 14.836a10.5 10.5 0 0 0 14.89 0zm-22.591-23.564c4.87-4.89 4.86-12.803-.02-17.681-4.88-4.879-12.787-4.879-17.668 0-4.88 4.878-4.89 12.791-.02 17.681 4.896 4.88 12.812 4.88 17.708 0zm-23.176-25.168a12.962 12.962 0 0 0 0-18.384c-5.08-5.05-13.276-5.05-18.356 0a12.962 12.962 0 0 0 0 18.384 12.922 12.922 0 0 0 18.356 0zm-21.986-25.984c5.077-5.08 5.077-13.296 0-18.376A12.98 12.98 0 0 0 28 1260a12.98 12.98 0 0 0-9.192 3.812c-5.077 5.08-5.077 13.296 0 18.376A12.98 12.98 0 0 0 28 1286c3.45 0 6.76-1.372 9.192-3.812zm-20.978-46.384A12.925 12.925 0 0 0 0 1234.097v21.806a12.925 12.925 0 0 0 16.214-1.707c5.048-5.086 5.048-13.306 0-18.392zM1472.176 42.208a13 13 0 1 0-18.352 0c5.073 5.056 13.28 5.056 18.352 0zM175.371 1455.374a9.017 9.017 0 0 0-.01-12.737 8.993 8.993 0 0 0-12.723 0 9.017 9.017 0 0 0-.01 12.737 9.04 9.04 0 0 0 12.743 0zm-27.055-21.257a9.5 9.5 0 1 0-13.632-13.234 9.5 9.5 0 0 0 13.632 13.234zm-25.404-22.18a10.5 10.5 0 1 0-14.824 0c4.098 4.084 10.726 4.084 14.824 0zm-24.777-22.779a10.825 10.825 0 0 0-15.27-15.317 10.825 10.825 0 0 0 15.27 15.317zm-23.807-23.808a12.5 12.5 0 1 0-17.656 0c4.88 4.867 12.777 4.867 17.656 0zm-23.156-24.175a12.937 12.937 0 0 0 0-18.37c-5.077-5.073-13.308-5.073-18.384 0-5.05 5.084-5.05 13.286 0 18.37a12.957 12.957 0 0 0 18.384 0zm-22.11-26.113c5.25-5.293 5.25-13.83 0-19.124-5.293-5.25-13.83-5.25-19.124 0-5.25 5.293-5.25 13.83 0 19.124 5.293 5.25 13.83 5.25 19.124 0zm87.715 128.717a11 11 0 1 0-15.554 0c4.295 4.295 11.259 4.295 15.554 0zm-25.994-23.006c4.292-4.297 4.289-11.26-.007-15.553-4.295-4.293-11.257-4.293-15.552 0-4.296 4.293-4.299 11.256-.007 15.553a11 11 0 0 0 15.566 0zm-23.439-23.44c4.877-4.883 4.874-12.795-.007-17.674-4.881-4.879-12.793-4.879-17.674 0-4.881 4.88-4.884 12.791-.007 17.674a12.5 12.5 0 0 0 17.688 0zm-24.166-24.121a12.962 12.962 0 0 0 0-18.384 12.922 12.922 0 0 0-18.356 0 12.962 12.962 0 0 0 0 18.384c5.08 5.05 13.276 5.05 18.356 0zm-22.103-44.413c-5.259-5.065-13.758-5.065-19.017 0-.797.8-1.488 1.691-2.058 2.656v13.138c.57.95 1.262 1.825 2.058 2.608 5.259 5.065 13.758 5.065 19.017 0 5.233-5.088 5.233-13.314 0-18.402zm63.708 122.974c4.292-4.297 4.289-11.26-.007-15.553-4.295-4.293-11.257-4.293-15.552 0-4.296 4.293-4.299 11.256-.007 15.553a11 11 0 0 0 15.566 0zm-26.022-23.978a10.947 10.947 0 0 0 0-15.55 10.908 10.908 0 0 0-15.522 0 10.947 10.947 0 0 0 0 15.55 10.999 10.999 0 0 0 15.522 0zm-23.408-23.485c4.863-4.882 4.863-12.777 0-17.66-4.898-4.867-12.808-4.867-17.706 0-4.863 4.883-4.863 12.778 0 17.66a12.465 12.465 0 0 0 17.706 0zm-23.1-42.515c-3.21-3.271-7.877-4.55-12.253-3.356v25.094c4.368 1.237 9.048-.026 12.253-3.307 2.398-2.437 3.747-5.755 3.747-9.215s-1.349-6.778-3.747-9.216z"/></g></svg>